<?xml version="1.0" encoding="UTF-8" standalone="no"?>
<svg
   xmlns:dc="http://purl.org/dc/elements/1.1/"
   xmlns:cc="http://creativecommons.org/ns#"
   xmlns:rdf="http://www.w3.org/1999/02/22-rdf-syntax-ns#"
   xmlns:svg="http://www.w3.org/2000/svg"
   xmlns="http://www.w3.org/2000/svg"
   xmlns:xlink="http://www.w3.org/1999/xlink"
   xmlns:sodipodi="http://sodipodi.sourceforge.net/DTD/sodipodi-0.dtd"
   xmlns:inkscape="http://www.inkscape.org/namespaces/inkscape"
   sodipodi:docname="lliuwin.svg"
   inkscape:export-ydpi="90"
   inkscape:export-xdpi="90"
   inkscape:export-filename="/home/lliurex/git/lliuwin/data/images/lliuwin.png"
   inkscape:version="1.0 (1.0+r73)"
   version="1.1"
   id="svg2"
   viewBox="0 0 128 121.87146"
   height="121.87146"
   width="128">
  <defs
     id="defs4">
    <linearGradient
       id="linearGradient4227"
       inkscape:collect="always">
      <stop
         id="stop4229"
         offset="0"
         style="stop-color:#292c2f;stop-opacity:1" />
      <stop
         id="stop4231"
         offset="1"
         style="stop-color:#000000;stop-opacity:0;" />
    </linearGradient>
    <linearGradient
       gradientTransform="matrix(1.1250015,0,0,1,-51.071966,0)"
       gradientUnits="userSpaceOnUse"
       y2="503.798"
       x2="409.57144"
       y1="543.79797"
       x1="409.57144"
       id="linearGradient4158"
       xlink:href="#linearGradient4159"
       inkscape:collect="always" />
    <linearGradient
       id="linearGradient4159"
       inkscape:collect="always">
      <stop
         id="stop4161"
         offset="0"
         style="stop-color:#1d1e1e;stop-opacity:1" />
      <stop
         id="stop4163"
         offset="1"
         style="stop-color:#44484c;stop-opacity:1" />
    </linearGradient>
    <linearGradient
       id="linearGradient4435-2"
       inkscape:collect="always">
      <stop
         id="stop4437-6"
         offset="0"
         style="stop-color:#c61423;stop-opacity:1" />
      <stop
         id="stop4439-7"
         offset="1"
         style="stop-color:#dc2b41;stop-opacity:1" />
    </linearGradient>
    <linearGradient
       id="linearGradient4143"
       inkscape:collect="always">
      <stop
         id="stop4145"
         offset="0"
         style="stop-color:#197cf1;stop-opacity:1" />
      <stop
         id="stop4147"
         offset="1"
         style="stop-color:#20bcfa;stop-opacity:1" />
    </linearGradient>
    <linearGradient
       id="linearGradient5022"
       inkscape:collect="always">
      <stop
         id="stop5024"
         offset="0"
         style="stop-color:#ffffff;stop-opacity:1;" />
      <stop
         id="stop5026"
         offset="1"
         style="stop-color:#ffffff;stop-opacity:0;" />
    </linearGradient>
    <linearGradient
       y2="503.798"
       x2="409.57144"
       y1="543.79797"
       x1="409.57144"
       gradientTransform="matrix(1.1250015,0,0,1,-437.64341,504.56422)"
       gradientUnits="userSpaceOnUse"
       id="linearGradient3156"
       xlink:href="#linearGradient4159"
       inkscape:collect="always" />
    <linearGradient
       y2="1038.3619"
       x2="7.2851796"
       y1="1050.339"
       x1="7.2851796"
       gradientTransform="matrix(-2.835215,0,0,2.8387461,45.655038,-1933.2836)"
       gradientUnits="userSpaceOnUse"
       id="linearGradient3158"
       xlink:href="#linearGradient4435-2"
       inkscape:collect="always" />
    <linearGradient
       y2="503.798"
       x2="396.57144"
       y1="520.79797"
       x1="396.57144"
       gradientTransform="translate(-386.57144,504.56422)"
       gradientUnits="userSpaceOnUse"
       id="linearGradient3160"
       xlink:href="#linearGradient4143"
       inkscape:collect="always" />
    <linearGradient
       y2="18.000015"
       x2="22.000011"
       y1="4"
       x1="7.9999962"
       gradientTransform="translate(-2.0000119,1004.3622)"
       gradientUnits="userSpaceOnUse"
       id="linearGradient3162"
       xlink:href="#linearGradient4227"
       inkscape:collect="always" />
    <linearGradient
       y2="504.798"
       x2="396.57144"
       y1="527.79797"
       x1="396.57144"
       gradientTransform="translate(-386.57144,504.56422)"
       gradientUnits="userSpaceOnUse"
       id="linearGradient3164"
       xlink:href="#linearGradient5022"
       inkscape:collect="always" />
    <linearGradient
       x1="48"
       y1="20.220806"
       x2="48"
       y2="138.66119"
       id="linearGradient3613"
       xlink:href="#linearGradient5022"
       gradientUnits="userSpaceOnUse" />
    <clipPath
       id="clipPath3613">
      <rect
         width="84"
         height="84"
         rx="6"
         ry="6"
         x="6"
         y="6"
         id="rect3615"
         style="fill:#ffffff;fill-opacity:1;fill-rule:nonzero;stroke:none" />
    </clipPath>
    <filter
       style="color-interpolation-filters:sRGB"
       x="-0.192"
       y="-0.192"
       width="1.3839999"
       height="1.3839999"
       id="filter3794">
      <feGaussianBlur
         id="feGaussianBlur3796"
         stdDeviation="5.28" />
    </filter>
    <linearGradient
       x1="32.251034"
       y1="6.1317081"
       x2="32.251034"
       y2="90.238609"
       id="linearGradient2918"
       xlink:href="#ButtonShadow-0"
       gradientUnits="userSpaceOnUse"
       gradientTransform="matrix(1.0238095,0,0,1.0119048,-1.1428571,-98.071429)" />
    <linearGradient
       x1="45.447727"
       y1="92.539597"
       x2="45.447727"
       y2="7.0165396"
       id="ButtonShadow-0"
       gradientUnits="userSpaceOnUse"
       gradientTransform="matrix(1.0058652,0,0,0.994169,100,0)">
      <stop
         id="stop3750-8"
         style="stop-color:#000000;stop-opacity:1"
         offset="0" />
      <stop
         id="stop3752-5"
         style="stop-color:#000000;stop-opacity:0.58823532"
         offset="1" />
    </linearGradient>
    <linearGradient
       x1="32.251034"
       y1="6.1317081"
       x2="32.251034"
       y2="90.238609"
       id="linearGradient3721"
       xlink:href="#ButtonShadow-0"
       gradientUnits="userSpaceOnUse"
       gradientTransform="translate(0,-97)" />
    <clipPath
       id="clipPath3613-4">
      <rect
         width="84"
         height="84"
         rx="6"
         ry="6"
         x="6"
         y="6"
         id="rect3615-9"
         style="fill:#ffffff;fill-opacity:1;fill-rule:nonzero;stroke:none" />
    </clipPath>
    <filter
       style="color-interpolation-filters:sRGB"
       x="-0.192"
       y="-0.192"
       width="1.3839999"
       height="1.3839999"
       id="filter3794-1">
      <feGaussianBlur
         id="feGaussianBlur3796-5"
         stdDeviation="5.28" />
    </filter>
    <radialGradient
       cx="48"
       cy="90.171875"
       r="42"
       fx="48"
       fy="90.171875"
       id="radialGradient3619"
       xlink:href="#linearGradient5022"
       gradientUnits="userSpaceOnUse"
       gradientTransform="matrix(1.1573129,0,0,0.99590774,198.06505,981.85399)" />
    <linearGradient
       gradientTransform="translate(205.61607,981.65686)"
       x1="36.357143"
       y1="6"
       x2="36.357143"
       y2="63.893143"
       id="linearGradient3188"
       xlink:href="#linearGradient5022"
       gradientUnits="userSpaceOnUse" />
    <linearGradient
       gradientTransform="translate(205.61607,981.65686)"
       x1="48"
       y1="90"
       x2="48"
       y2="5.9877172"
       id="linearGradient3617"
       xlink:href="#linearGradient3614"
       gradientUnits="userSpaceOnUse" />
    <linearGradient
       id="linearGradient3614">
      <stop
         id="stop3616"
         style="stop-color:#0185c9;stop-opacity:1"
         offset="0" />
      <stop
         id="stop3618"
         style="stop-color:#029bed;stop-opacity:1"
         offset="1" />
    </linearGradient>
    <linearGradient
       x1="32.251034"
       y1="6.1317081"
       x2="32.251034"
       y2="90.238609"
       id="linearGradient3780"
       xlink:href="#ButtonShadow-0"
       gradientUnits="userSpaceOnUse"
       gradientTransform="matrix(1.0238095,0,0,-1.0119048,204.47321,1079.7283)" />
    <linearGradient
       x1="32.251034"
       y1="6.1317081"
       x2="32.251034"
       y2="90.238609"
       id="linearGradient3725"
       xlink:href="#ButtonShadow-0"
       gradientUnits="userSpaceOnUse"
       gradientTransform="matrix(1.0238095,0,0,1.0119048,204.47321,-1079.7283)" />
    <filter
       height="1.7778057"
       y="-0.38890287"
       width="1.5654351"
       x="-0.28271756"
       id="filter1309"
       style="color-interpolation-filters:sRGB"
       inkscape:collect="always">
      <feGaussianBlur
         id="feGaussianBlur1311"
         stdDeviation="6.467285"
         inkscape:collect="always" />
    </filter>
  </defs>
  <sodipodi:namedview
     inkscape:document-rotation="0"
     inkscape:window-maximized="1"
     inkscape:window-y="32"
     inkscape:window-x="0"
     inkscape:window-height="926"
     inkscape:window-width="1920"
     borderlayer="true"
     units="px"
     showgrid="false"
     inkscape:current-layer="layer1"
     inkscape:document-units="px"
     inkscape:cy="81.335822"
     inkscape:cx="-31.637079"
     inkscape:zoom="2.8"
     inkscape:pageshadow="2"
     inkscape:pageopacity="0.0"
     borderopacity="1.0"
     bordercolor="#666666"
     pagecolor="#ffffff"
     id="base" />
  <metadata
     id="metadata7">
    <rdf:RDF>
      <cc:Work
         rdf:about="">
        <dc:format>image/svg+xml</dc:format>
        <dc:type
           rdf:resource="http://purl.org/dc/dcmitype/StillImage" />
        <dc:title />
      </cc:Work>
    </rdf:RDF>
  </metadata>
  <g
     transform="translate(32.089377,-960.42684)"
     id="layer1"
     inkscape:groupmode="layer"
     inkscape:label="Capa 1">
    <path
       inkscape:original-d="m 1.451121,1000.5736 24.895665,-3.21824 0.01088,22.79364 -24.883805,0.1345 z m 24.883806,22.2016 0.01932,22.8136 -24.883805,-3.2473 -0.0014,-19.7193 z m 3.017937,-25.84085 33.009586,-4.5729 v 27.49765 l -33.009586,0.2488 z m 33.01726,26.05545 -0.0078,27.3739 -33.009585,-4.4222 -0.04625,-23.003 z"
       clip-path="none"
       style="fill:#000080;fill-opacity:1;stroke-width:1.31033"
       d="m -32.089377,977.68181 52.309541,-6.76201 0.02286,47.8929 -52.284622,0.2826 z m 52.284624,46.64889 0.04059,47.9348 -52.284622,-6.823 -0.0029,-41.4333 z m 6.34114,-54.2955 69.358111,-9.60836 v 57.77666 l -69.358111,0.5228 z m 69.374235,54.7464 -0.01639,57.5167 -69.35811,-9.2917 -0.09718,-48.3328 z"
       id="path4" />
    <path
       clip-path="none"
       id="path292"
       d="m 12.355822,1054.8323 c -11.60776727,-4.9019 -19.2988591,-15.6501 -21.4567025,-29.985 -0.4492492,-2.9846 -0.8168171,-5.5582 -0.8168171,-5.7192 0,-0.1613 1.4901018,-0.2928 3.3113365,-0.2928 3.3767276,0 4.226401,-0.916 4.226401,-4.5564 0,-3.4512 4.6987824,-13.0549 8.3714185,-17.10987 3.4910321,-3.85465 10.3178336,-7.93715 13.3278576,-7.97014 0.709956,0 1.78614,-0.39889 2.391517,-0.86926 0.941993,-0.73179 0.897979,-1.13012 -0.305269,-2.76286 -1.790454,-2.42977 -1.509249,-2.39842 3.654925,0.4064 2.343571,1.27273 4.570091,2.31411 4.947819,2.31411 0.377729,0 0.792055,-1.55136 0.920725,-3.44751 l 0.233946,-3.44771 4.028664,6.68771 c 2.215764,3.67794 4.312895,6.68735 4.660291,6.68735 0.347395,0 0.854016,-0.86046 1.125824,-1.91211 0.271808,-1.05184 1.534543,-3.36741 2.806079,-5.14589 6.508511,-9.10347 17.475579,-9.76526 24.432223,-1.47437 7.080274,8.43832 8.53428,20.94355 3.764617,32.37775 -4.036051,9.6753 -13.317136,14.4641 -21.008202,10.8397 -0.742724,-0.35 -1.439625,1.0184 -2.375508,4.6645 -2.397692,9.3411 -10.701371,19.0785 -18.554309,21.7579 -4.45016,1.5184 -12.786683,1.027 -17.686836,-1.0423 z"
       style="opacity:1;fill:#ffffff;stroke:#0000ff;stroke-width:1.66211;stroke-miterlimit:4;stroke-dasharray:none;stroke-opacity:1" />
    <path
       style="opacity:0.81622;fill:#ffdd55;stroke:none;stroke-width:0.507602;stroke-miterlimit:4;stroke-dasharray:none;stroke-opacity:1;filter:url(#filter1309)"
       d="m 23.962693,1040.2462 c -8.54982,-1.2067 -15.27353,-7.409 -17.25023,-15.9125 l -0.62292,-2.6797 1.84529,-0.3321 c 2.41008,-0.4338 3.10797,-1.0381 3.10797,-2.6911 0,-1.4869 2.85499,-6.5727 4.88746,-8.7064 1.57684,-1.6554 6.37116,-4.2148 8.71646,-4.6532 0.95404,-0.1783 2.14821,-0.6985 2.6537,-1.156 0.75338,-0.6818 1.15064,-0.7262 2.20348,-0.2465 1.91004,0.8703 3.31643,0.7203 3.60535,-0.3846 0.21211,-0.8111 0.60183,-0.5425 2.38224,1.6415 1.17076,1.4362 2.53129,2.6113 3.02341,2.6113 0.49212,0 1.50817,-0.9032 2.25789,-2.0072 4.16936,-6.1392 11.58278,-6.93795 16.58734,-1.7871 2.39261,2.4625 3.36777,4.8748 3.5755,8.8451 0.16754,3.2019 0.0266,3.8453 -1.49414,6.8178 -1.18468,2.3157 -2.32467,3.7287 -3.87133,4.7982 -2.01529,1.3937 -2.53986,1.5163 -6.50059,1.5199 h -4.3084 l -0.9619,2.4488 c -3.42659,8.7234 -10.81316,13.1434 -19.83658,11.8699 z"
       id="path1204-7"
       transform="matrix(1.4923962,0,0,1.8327789,-17.729541,-851.75903)" />
    <path
       id="path1204"
       d="m 18.032082,1054.7882 c -12.7596101,-2.212 -22.7939846,-13.5815 -25.7439726,-29.1692 l -0.929641,-4.9121 2.7538746,-0.609 c 3.5967812,-0.7952 4.638295,-1.9029 4.638295,-4.933 0,-2.7256 4.2607464,-12.0483 7.2939798,-15.95967 2.353249,-3.0345 9.5082122,-7.72607 13.0083042,-8.52967 1.423801,-0.3269 3.205957,-1.28048 3.960346,-2.11906 1.124326,-1.2498 1.717204,-1.33128 3.288441,-0.45193 2.850517,1.59531 4.949397,1.32033 5.380568,-0.70492 0.316555,-1.48686 0.898159,-0.99462 3.555227,3.00903 1.747217,2.6327 3.777657,4.78672 4.512092,4.78672 0.734432,0 2.250771,-1.6557 3.369637,-3.67932 6.222298,-11.25386 17.28597,-12.71806 24.754704,-3.2761 3.57069,4.51406 5.025999,8.93614 5.336016,16.21402 0.250032,5.8694 0.03966,7.0487 -2.229835,12.4978 -1.767993,4.2449 -3.469294,6.8348 -5.777506,8.7955 -3.007598,2.5546 -3.790455,2.7795 -9.701387,2.7862 l -6.429786,0.014 -1.435533,4.4889 c -5.113788,15.9908 -16.137399,24.0931 -29.603824,21.7587 z"
       style="opacity:1;fill:#ffffff;stroke:none;stroke-width:0.83957;stroke-miterlimit:4;stroke-dasharray:none;stroke-opacity:1" />
  </g>
</svg>
