<?xml version="1.0" encoding="UTF-8" standalone="no"?>
<!-- Created with Inkscape (http://www.inkscape.org/) -->

<svg
   xmlns:dc="http://purl.org/dc/elements/1.1/"
   xmlns:cc="http://creativecommons.org/ns#"
   xmlns:rdf="http://www.w3.org/1999/02/22-rdf-syntax-ns#"
   xmlns:svg="http://www.w3.org/2000/svg"
   xmlns="http://www.w3.org/2000/svg"
   xmlns:sodipodi="http://sodipodi.sourceforge.net/DTD/sodipodi-0.dtd"
   xmlns:inkscape="http://www.inkscape.org/namespaces/inkscape"
   width="320"
   height="48"
   viewBox="0 0 84.666665 12.7"
   version="1.1"
   id="svg880"
   inkscape:version="0.92.3 (2405546, 2018-03-11)"
   sodipodi:docname="lliurex.svg">
  <defs
     id="defs874" />
  <sodipodi:namedview
     id="base"
     pagecolor="#ffffff"
     bordercolor="#666666"
     borderopacity="1.0"
     inkscape:pageopacity="0.0"
     inkscape:pageshadow="2"
     inkscape:zoom="1.979899"
     inkscape:cx="60.918054"
     inkscape:cy="19.808515"
     inkscape:document-units="px"
     inkscape:current-layer="layer1"
     showgrid="false"
     units="px"
     inkscape:window-width="1920"
     inkscape:window-height="1019"
     inkscape:window-x="0"
     inkscape:window-y="0"
     inkscape:window-maximized="1" />
  <metadata
     id="metadata877">
    <rdf:RDF>
      <cc:Work
         rdf:about="">
        <dc:format>image/svg+xml</dc:format>
        <dc:type
           rdf:resource="http://purl.org/dc/dcmitype/StillImage" />
        <dc:title />
      </cc:Work>
    </rdf:RDF>
  </metadata>
  <g
     inkscape:label="Capa 1"
     inkscape:groupmode="layer"
     id="layer1"
     transform="translate(0,-284.29998)">
    <g
       id="g1117"
       transform="matrix(1.5054216,0,0,1.4541153,-261.79369,-190.40855)"
       style="fill:#7f8c8d;fill-opacity:1">
      <path
         sodipodi:nodetypes="sssscscsscsssss"
         d="m 178.07229,334.9778 c -0.99243,0 -1.75719,-0.28606 -2.29428,-0.85817 -0.53709,-0.57211 -0.80562,-1.30768 -0.80562,-2.20671 v -2.39062 c 0,-0.21599 0.0583,-0.38237 0.17514,-0.49912 0.11676,-0.11677 0.28313,-0.17515 0.49913,-0.17515 0.216,0 0.38238,0.0584 0.49914,0.17515 0.11676,0.11675 0.17513,0.28313 0.17513,0.49912 v 2.39062 c 0,0.5546 0.16347,1.00703 0.49038,1.35731 0.32693,0.34443 0.79688,0.51665 1.40986,0.51665 h 3.48519 c 0.40282,0 0.60423,0.19849 0.60423,0.59547 0,0.39696 -0.20141,0.59545 -0.60423,0.59545 z"
         style="font-style:normal;font-variant:normal;font-weight:bold;font-stretch:normal;font-size:medium;line-height:42.05411148px;font-family:SpaceColony-SemiBold;-inkscape-font-specification:'SpaceColony-SemiBold Bold';letter-spacing:0px;word-spacing:0px;fill:#7f8c8d;fill-opacity:1;stroke:none;stroke-width:0.21892026px;stroke-linecap:butt;stroke-linejoin:miter;stroke-opacity:1"
         id="path1096"
         inkscape:connector-curvature="0" />
      <path
         sodipodi:nodetypes="sssscsssscsssss"
         d="m 186.00815,334.9778 c -0.99243,0 -1.75719,-0.28606 -2.29428,-0.85817 -0.53708,-0.57211 -0.80562,-1.30768 -0.80562,-2.20671 v -2.39062 c 0,-0.21599 0.0584,-0.38237 0.17513,-0.49912 0.11675,-0.11677 0.28313,-0.17515 0.49914,-0.17515 0.216,0 0.38237,0.0584 0.49914,0.17515 0.11675,0.11675 0.17513,0.28313 0.17513,0.49912 v 2.39062 c 0,0.5546 0.16346,1.00703 0.49039,1.35731 0.32692,0.34443 0.79687,0.51665 1.40984,0.51665 h 3.48521 c 0.40282,0 0.60422,0.19849 0.60422,0.59547 0,0.39696 -0.2014,0.59545 -0.60422,0.59545 z"
         style="font-style:normal;font-variant:normal;font-weight:bold;font-stretch:normal;font-size:medium;line-height:42.05411148px;font-family:SpaceColony-SemiBold;-inkscape-font-specification:'SpaceColony-SemiBold Bold';letter-spacing:0px;word-spacing:0px;fill:#7f8c8d;fill-opacity:1;stroke:none;stroke-width:0.21892026px;stroke-linecap:butt;stroke-linejoin:miter;stroke-opacity:1"
         id="path1098"
         inkscape:connector-curvature="0" />
      <path
         sodipodi:nodetypes="ssscsssssssssssss"
         d="m 192.31237,327.32136 v 5.03816 c 0,0.42616 -0.21599,0.63924 -0.648,0.63924 -0.21016,0 -0.37362,-0.0555 -0.49038,-0.16638 -0.11092,-0.11092 -0.16638,-0.26854 -0.16638,-0.47286 v -5.03816 c 0,-0.43201 0.21892,-0.64801 0.65676,-0.64801 0.43201,0 0.648,0.216 0.648,0.64801 z m -1.2347,7.44628 c -0.14011,-0.14011 -0.21017,-0.33568 -0.21017,-0.5867 0,-0.25104 0.0701,-0.4466 0.21017,-0.58672 0.1401,-0.1401 0.33567,-0.21016 0.5867,-0.21016 0.25686,0 0.45535,0.0701 0.59546,0.21016 0.14011,0.14012 0.21017,0.33568 0.21017,0.58672 0,0.25102 -0.0701,0.44659 -0.21017,0.5867 -0.14011,0.14011 -0.3386,0.21016 -0.59546,0.21016 -0.25103,0 -0.4466,-0.0701 -0.5867,-0.21016 z"
         style="font-style:normal;font-variant:normal;font-weight:bold;font-stretch:normal;font-size:medium;line-height:42.05411148px;font-family:SpaceColony-SemiBold;-inkscape-font-specification:'SpaceColony-SemiBold Bold';letter-spacing:0px;word-spacing:0px;fill:#7f8c8d;fill-opacity:1;stroke:none;stroke-width:0.21892026px;stroke-linecap:butt;stroke-linejoin:miter;stroke-opacity:1"
         id="path1100"
         inkscape:connector-curvature="0" />
      <path
         sodipodi:nodetypes="sscsscsscscsscssssscscs"
         d="m 194.84364,329.5223 v 2.39062 c 0,0.5546 0.16346,1.00703 0.49038,1.35731 0.32693,0.34443 0.79687,0.51665 1.40984,0.51665 h 1.76888 c 0.61298,0 1.08293,-0.17222 1.40985,-0.51665 0.32693,-0.35028 0.49038,-0.80271 0.49038,-1.35731 v -2.39062 c 0,-0.21599 0.0583,-0.38237 0.17514,-0.49912 0.11675,-0.11677 0.28313,-0.17515 0.49913,-0.17515 0.216,0 0.38239,0.0584 0.49915,0.17515 0.11676,0.11675 0.17514,0.28313 0.17514,0.49912 v 2.39062 c 0,0.89903 -0.26855,1.6346 -0.80564,2.20671 -0.53708,0.57211 -1.30184,0.85817 -2.29428,0.85817 H 196.595 c -0.99243,0 -1.7572,-0.28606 -2.29428,-0.85817 -0.53709,-0.57211 -0.80563,-1.30768 -0.80563,-2.20671 v -2.39062 c 0,-0.21599 0.0584,-0.38237 0.17513,-0.49912 0.11676,-0.11677 0.28314,-0.17515 0.49915,-0.17515 0.21599,0 0.38237,0.0584 0.49913,0.17515 0.11676,0.11675 0.17514,0.28313 0.17514,0.49912 z"
         style="font-style:normal;font-variant:normal;font-weight:bold;font-stretch:normal;font-size:medium;line-height:42.05411148px;font-family:SpaceColony-SemiBold;-inkscape-font-specification:'SpaceColony-SemiBold Bold';letter-spacing:0px;word-spacing:0px;fill:#7f8c8d;fill-opacity:1;stroke:none;stroke-width:0.21892026px;stroke-linecap:butt;stroke-linejoin:miter;stroke-opacity:1"
         id="path1102"
         inkscape:connector-curvature="0" />
      <path
         sodipodi:nodetypes="sscscscsssscsscscccsscscssccssscs"
         d="m 209.85473,334.30353 v -0.35027 c 0,-0.32693 -0.0934,-0.58963 -0.28021,-0.78812 -0.18682,-0.19848 -0.46412,-0.29772 -0.83191,-0.29772 h -4.40467 v 1.43611 c 0,0.216 -0.0584,0.38238 -0.17514,0.49914 -0.11092,0.11675 -0.27438,0.17513 -0.49038,0.17513 -0.21599,0 -0.38237,-0.0583 -0.49913,-0.17513 -0.11677,-0.11676 -0.17514,-0.28314 -0.17514,-0.49914 v -4.78123 c 0,-0.21599 0.0584,-0.38237 0.17514,-0.49912 0.11676,-0.11677 0.28314,-0.17515 0.49913,-0.17515 h 5.70069 c 0.58378,0 1.0333,0.1693 1.34855,0.5079 0.31524,0.33276 0.47286,0.76184 0.47286,1.28724 0,0.37363 -0.0788,0.70348 -0.23643,0.98954 -0.15762,0.28604 -0.38822,0.49913 -0.69179,0.63924 0.29774,0.12843 0.52541,0.32692 0.68303,0.59547 0.16346,0.2627 0.24519,0.56627 0.24519,0.9107 v 0.52541 c 0,0.216 -0.0583,0.38238 -0.17513,0.49914 -0.11676,0.11675 -0.28314,0.17513 -0.49914,0.17513 -0.216,0 -0.38238,-0.0583 -0.49914,-0.17513 -0.11092,-0.11676 -0.16638,-0.28314 -0.16638,-0.49914 z m -0.84941,-4.26456 h -4.66738 v 1.64627 h 4.66738 c 0.26854,0 0.47579,-0.0759 0.62173,-0.22767 0.14595,-0.15178 0.21893,-0.35027 0.21893,-0.59546 0,-0.2452 -0.0729,-0.44369 -0.21893,-0.59547 -0.14594,-0.15179 -0.35319,-0.22767 -0.62173,-0.22767 z"
         style="font-style:normal;font-variant:normal;font-weight:bold;font-stretch:normal;font-size:medium;line-height:42.05411148px;font-family:SpaceColony-SemiBold;-inkscape-font-specification:'SpaceColony-SemiBold Bold';letter-spacing:0px;word-spacing:0px;fill:#7f8c8d;fill-opacity:1;stroke:none;stroke-width:0.21892026px;stroke-linecap:butt;stroke-linejoin:miter;stroke-opacity:1"
         id="path1104"
         inkscape:connector-curvature="0" />
      <path
         sodipodi:nodetypes="sccsssccssssscscsssss"
         d="m 215.36714,330.03897 c -0.49037,0 -0.89319,0.11675 -1.20844,0.35026 -0.30941,0.22768 -0.51665,0.53709 -0.62173,0.92822 h 5.2103 c 0.40282,0 0.60422,0.19849 0.60422,0.59547 0,0.39698 -0.2014,0.59546 -0.60422,0.59546 h -5.2103 c 0.10508,0.39114 0.31232,0.70347 0.62173,0.93698 0.31525,0.22768 0.71807,0.34152 1.20844,0.34152 h 4.08067 c 0.40282,0 0.60422,0.19849 0.60422,0.59547 0,0.39696 -0.2014,0.59545 -0.60422,0.59545 h -4.22953 c -0.99827,0 -1.76596,-0.28606 -2.30305,-0.85817 -0.53124,-0.57211 -0.79686,-1.30768 -0.79686,-2.20671 0,-0.89903 0.26562,-1.63461 0.79686,-2.20672 0.53709,-0.57211 1.30478,-0.85817 2.30305,-0.85817 h 4.22953 c 0.40282,0 0.60422,0.19849 0.60422,0.59547 0,0.39698 -0.2014,0.59547 -0.60422,0.59547 z"
         style="font-style:normal;font-variant:normal;font-weight:bold;font-stretch:normal;font-size:medium;line-height:42.05411148px;font-family:SpaceColony-SemiBold;-inkscape-font-specification:'SpaceColony-SemiBold Bold';letter-spacing:0px;word-spacing:0px;fill:#7f8c8d;fill-opacity:1;stroke:none;stroke-width:0.21892026px;stroke-linecap:butt;stroke-linejoin:miter;stroke-opacity:1"
         id="path1106"
         inkscape:connector-curvature="0" />
      <path
         sodipodi:nodetypes="cccssccccsscccsscccccsscc"
         d="m 222.09074,328.98814 2.88098,2.20672 2.90726,-2.21547 c 0.10508,-0.0876 0.25103,-0.13136 0.43785,-0.13136 0.432,0 0.64799,0.21017 0.64799,0.63049 0,0.18098 -0.11091,0.35028 -0.33275,0.5079 l -2.5132,1.87396 2.60076,1.91774 c 0.1226,0.0876 0.21017,0.1693 0.26271,0.24519 0.0584,0.0759 0.0876,0.17514 0.0876,0.29773 0,0.43784 -0.22184,0.65676 -0.66552,0.65676 -0.19264,0 -0.34735,-0.0467 -0.46411,-0.14011 l -3.00358,-2.26801 -3.00359,2.26801 c -0.11093,0.0934 -0.25979,0.14011 -0.4466,0.14011 -0.42616,0 -0.63925,-0.21016 -0.63925,-0.63049 0,-0.18097 0.11384,-0.35319 0.34152,-0.51665 l 2.60953,-1.93526 -2.49569,-1.85643 c -0.0759,-0.0584 -0.13427,-0.1051 -0.17514,-0.14011 -0.0408,-0.0408 -0.0788,-0.0934 -0.11384,-0.15763 -0.0351,-0.0701 -0.0526,-0.14887 -0.0526,-0.23644 0,-0.43784 0.22184,-0.65676 0.66552,-0.65676 0.19264,0 0.34735,0.0467 0.46411,0.14011 z"
         style="font-style:normal;font-variant:normal;font-weight:bold;font-stretch:normal;font-size:medium;line-height:42.05411148px;font-family:SpaceColony-SemiBold;-inkscape-font-specification:'SpaceColony-SemiBold Bold';letter-spacing:0px;word-spacing:0px;fill:#7f8c8d;fill-opacity:1;stroke:none;stroke-width:0.21892026px;stroke-linecap:butt;stroke-linejoin:miter;stroke-opacity:1"
         id="path1108"
         inkscape:connector-curvature="0" />
    </g>
  </g>
</svg>
